<?xml version="1.0" encoding="UTF-8" standalone="no"?>
<!DOCTYPE svg PUBLIC "-//W3C//DTD SVG 1.1//EN"
 "http://www.w3.org/Graphics/SVG/1.1/DTD/svg11.dtd">
<!-- Generated by graphviz version 2.44.0 (20200408.0750)
 -->
<!-- Title: G Pages: 1 -->
<svg width="1430pt" height="618pt"
 viewBox="0.00 0.00 1430.20 617.81" xmlns="http://www.w3.org/2000/svg" xmlns:xlink="http://www.w3.org/1999/xlink">
<g id="graph0" class="graph" transform="scale(1 1) rotate(0) translate(21.6 596.21)">
<title>G</title>
<polygon fill="#111111" stroke="transparent" points="-21.6,21.6 -21.6,-596.21 1408.6,-596.21 1408.6,21.6 -21.6,21.6"/>
<!-- db/connections.js -->
<g id="node1" class="node">
<title>db/connections.js</title>
<path fill="none" stroke="#c6c5fe" d="M1173.83,-380C1173.83,-380 1068.17,-380 1068.17,-380 1064.33,-380 1060.5,-376.17 1060.5,-372.33 1060.5,-372.33 1060.5,-364.67 1060.5,-364.67 1060.5,-360.83 1064.33,-357 1068.17,-357 1068.17,-357 1173.83,-357 1173.83,-357 1177.67,-357 1181.5,-360.83 1181.5,-364.67 1181.5,-364.67 1181.5,-372.33 1181.5,-372.33 1181.5,-376.17 1177.67,-380 1173.83,-380"/>
<text text-anchor="middle" x="1121" y="-364.8" font-family="Arial" font-size="14.00" fill="#c6c5fe">db/connections.js</text>
</g>
<!-- services/logger.js -->
<g id="node2" class="node">
<title>services/logger.js</title>
<path fill="none" stroke="#cfffac" d="M1379.33,-340C1379.33,-340 1274.67,-340 1274.67,-340 1270.83,-340 1267,-336.17 1267,-332.33 1267,-332.33 1267,-324.67 1267,-324.67 1267,-320.83 1270.83,-317 1274.67,-317 1274.67,-317 1379.33,-317 1379.33,-317 1383.17,-317 1387,-320.83 1387,-324.67 1387,-324.67 1387,-332.33 1387,-332.33 1387,-336.17 1383.17,-340 1379.33,-340"/>
<text text-anchor="middle" x="1327" y="-324.8" font-family="Arial" font-size="14.00" fill="#cfffac">services/logger.js</text>
</g>
<!-- db/connections.js&#45;&gt;services/logger.js -->
<g id="edge1" class="edge">
<title>db/connections.js&#45;&gt;services/logger.js</title>
<path fill="none" stroke="#757575" d="M1180.73,-356.98C1204.63,-352.3 1232.42,-346.85 1257.25,-341.98"/>
<polygon fill="#757575" stroke="#757575" points="1258.19,-345.36 1267.33,-340 1256.84,-338.49 1258.19,-345.36"/>
</g>
<!-- db/index.js -->
<g id="node3" class="node">
<title>db/index.js</title>
<path fill="none" stroke="#c6c5fe" d="M1153.83,-23C1153.83,-23 1088.17,-23 1088.17,-23 1084.33,-23 1080.5,-19.17 1080.5,-15.33 1080.5,-15.33 1080.5,-7.67 1080.5,-7.67 1080.5,-3.83 1084.33,0 1088.17,0 1088.17,0 1153.83,0 1153.83,0 1157.67,0 1161.5,-3.83 1161.5,-7.67 1161.5,-7.67 1161.5,-15.33 1161.5,-15.33 1161.5,-19.17 1157.67,-23 1153.83,-23"/>
<text text-anchor="middle" x="1121" y="-7.8" font-family="Arial" font-size="14.00" fill="#c6c5fe">db/index.js</text>
</g>
<!-- db/index.js&#45;&gt;services/logger.js -->
<g id="edge2" class="edge">
<title>db/index.js&#45;&gt;services/logger.js</title>
<path fill="none" stroke="#757575" d="M1161.71,-11.74C1184.59,-13.92 1212.4,-20.36 1231,-37.5 1310.9,-111.14 1323.77,-252.77 1325.71,-306.82"/>
<polygon fill="#757575" stroke="#757575" points="1322.22,-307.06 1325.98,-316.96 1329.22,-306.87 1322.22,-307.06"/>
</g>
<!-- index.js -->
<g id="node4" class="node">
<title>index.js</title>
<path fill="none" stroke="#c6c5fe" d="M54.33,-184C54.33,-184 7.67,-184 7.67,-184 3.83,-184 0,-180.17 0,-176.33 0,-176.33 0,-168.67 0,-168.67 0,-164.83 3.83,-161 7.67,-161 7.67,-161 54.33,-161 54.33,-161 58.17,-161 62,-164.83 62,-168.67 62,-168.67 62,-176.33 62,-176.33 62,-180.17 58.17,-184 54.33,-184"/>
<text text-anchor="middle" x="31" y="-168.8" font-family="Arial" font-size="14.00" fill="#c6c5fe">index.js</text>
</g>
<!-- index.js&#45;&gt;services/logger.js -->
<g id="edge4" class="edge">
<title>index.js&#45;&gt;services/logger.js</title>
<path fill="none" stroke="#757575" d="M34.2,-184.2C47.15,-249.26 119.62,-563.5 311,-563.5 311,-563.5 311,-563.5 862,-563.5 1027.5,-563.5 1095.88,-609.06 1231,-513.5 1287.59,-473.48 1312.72,-389.47 1321.76,-349.93"/>
<polygon fill="#757575" stroke="#757575" points="1325.21,-350.55 1323.9,-340.03 1318.37,-349.07 1325.21,-350.55"/>
</g>
<!-- routes/index.js -->
<g id="node5" class="node">
<title>routes/index.js</title>
<path fill="none" stroke="#c6c5fe" d="M206.83,-222C206.83,-222 118.17,-222 118.17,-222 114.33,-222 110.5,-218.17 110.5,-214.33 110.5,-214.33 110.5,-206.67 110.5,-206.67 110.5,-202.83 114.33,-199 118.17,-199 118.17,-199 206.83,-199 206.83,-199 210.67,-199 214.5,-202.83 214.5,-206.67 214.5,-206.67 214.5,-214.33 214.5,-214.33 214.5,-218.17 210.67,-222 206.83,-222"/>
<text text-anchor="middle" x="162.5" y="-206.8" font-family="Arial" font-size="14.00" fill="#c6c5fe">routes/index.js</text>
</g>
<!-- index.js&#45;&gt;routes/index.js -->
<g id="edge3" class="edge">
<title>index.js&#45;&gt;routes/index.js</title>
<path fill="none" stroke="#757575" d="M62.04,-181.31C77.03,-185.71 95.54,-191.15 112.52,-196.13"/>
<polygon fill="#757575" stroke="#757575" points="111.71,-199.54 122.29,-199 113.68,-192.82 111.71,-199.54"/>
</g>
<!-- services/passport.js -->
<g id="node6" class="node">
<title>services/passport.js</title>
<path fill="none" stroke="#c6c5fe" d="M524.33,-181C524.33,-181 404.67,-181 404.67,-181 400.83,-181 397,-177.17 397,-173.33 397,-173.33 397,-165.67 397,-165.67 397,-161.83 400.83,-158 404.67,-158 404.67,-158 524.33,-158 524.33,-158 528.17,-158 532,-161.83 532,-165.67 532,-165.67 532,-173.33 532,-173.33 532,-177.17 528.17,-181 524.33,-181"/>
<text text-anchor="middle" x="464.5" y="-165.8" font-family="Arial" font-size="14.00" fill="#c6c5fe">services/passport.js</text>
</g>
<!-- index.js&#45;&gt;services/passport.js -->
<g id="edge5" class="edge">
<title>index.js&#45;&gt;services/passport.js</title>
<path fill="none" stroke="#757575" d="M62.34,-172.29C128.97,-171.83 289.83,-170.71 386.39,-170.04"/>
<polygon fill="#757575" stroke="#757575" points="386.71,-173.53 396.68,-169.96 386.66,-166.53 386.71,-173.53"/>
</g>
<!-- services/session.js -->
<g id="node7" class="node">
<title>services/session.js</title>
<path fill="none" stroke="#c6c5fe" d="M219.33,-66C219.33,-66 105.67,-66 105.67,-66 101.83,-66 98,-62.17 98,-58.33 98,-58.33 98,-50.67 98,-50.67 98,-46.83 101.83,-43 105.67,-43 105.67,-43 219.33,-43 219.33,-43 223.17,-43 227,-46.83 227,-50.67 227,-50.67 227,-58.33 227,-58.33 227,-62.17 223.17,-66 219.33,-66"/>
<text text-anchor="middle" x="162.5" y="-50.8" font-family="Arial" font-size="14.00" fill="#c6c5fe">services/session.js</text>
</g>
<!-- index.js&#45;&gt;services/session.js -->
<g id="edge6" class="edge">
<title>index.js&#45;&gt;services/session.js</title>
<path fill="none" stroke="#757575" d="M44.89,-160.75C67.39,-140.26 113.98,-97.8 140.97,-73.21"/>
<polygon fill="#757575" stroke="#757575" points="143.63,-75.52 148.66,-66.2 138.91,-70.35 143.63,-75.52"/>
</g>
<!-- routes/auth.js -->
<g id="node11" class="node">
<title>routes/auth.js</title>
<path fill="none" stroke="#c6c5fe" d="M353.33,-262C353.33,-262 270.67,-262 270.67,-262 266.83,-262 263,-258.17 263,-254.33 263,-254.33 263,-246.67 263,-246.67 263,-242.83 266.83,-239 270.67,-239 270.67,-239 353.33,-239 353.33,-239 357.17,-239 361,-242.83 361,-246.67 361,-246.67 361,-254.33 361,-254.33 361,-258.17 357.17,-262 353.33,-262"/>
<text text-anchor="middle" x="312" y="-246.8" font-family="Arial" font-size="14.00" fill="#c6c5fe">routes/auth.js</text>
</g>
<!-- routes/index.js&#45;&gt;routes/auth.js -->
<g id="edge17" class="edge">
<title>routes/index.js&#45;&gt;routes/auth.js</title>
<path fill="none" stroke="#757575" d="M206.16,-222.07C222.52,-226.51 241.38,-231.62 258.55,-236.28"/>
<polygon fill="#757575" stroke="#757575" points="257.87,-239.72 268.43,-238.96 259.7,-232.96 257.87,-239.72"/>
</g>
<!-- routes/images.js -->
<g id="node14" class="node">
<title>routes/images.js</title>
<path fill="none" stroke="#c6c5fe" d="M514.83,-140C514.83,-140 414.17,-140 414.17,-140 410.33,-140 406.5,-136.17 406.5,-132.33 406.5,-132.33 406.5,-124.67 406.5,-124.67 406.5,-120.83 410.33,-117 414.17,-117 414.17,-117 514.83,-117 514.83,-117 518.67,-117 522.5,-120.83 522.5,-124.67 522.5,-124.67 522.5,-132.33 522.5,-132.33 522.5,-136.17 518.67,-140 514.83,-140"/>
<text text-anchor="middle" x="464.5" y="-124.8" font-family="Arial" font-size="14.00" fill="#c6c5fe">routes/images.js</text>
</g>
<!-- routes/index.js&#45;&gt;routes/images.js -->
<g id="edge18" class="edge">
<title>routes/index.js&#45;&gt;routes/images.js</title>
<path fill="none" stroke="#757575" d="M205.85,-198.93C259.9,-184.15 353.36,-158.61 411.62,-142.68"/>
<polygon fill="#757575" stroke="#757575" points="412.65,-146.03 421.37,-140.02 410.8,-139.28 412.65,-146.03"/>
</g>
<!-- routes/media.js -->
<g id="node16" class="node">
<title>routes/media.js</title>
<path fill="none" stroke="#c6c5fe" d="M511.33,-222C511.33,-222 417.67,-222 417.67,-222 413.83,-222 410,-218.17 410,-214.33 410,-214.33 410,-206.67 410,-206.67 410,-202.83 413.83,-199 417.67,-199 417.67,-199 511.33,-199 511.33,-199 515.17,-199 519,-202.83 519,-206.67 519,-206.67 519,-214.33 519,-214.33 519,-218.17 515.17,-222 511.33,-222"/>
<text text-anchor="middle" x="464.5" y="-206.8" font-family="Arial" font-size="14.00" fill="#c6c5fe">routes/media.js</text>
</g>
<!-- routes/index.js&#45;&gt;routes/media.js -->
<g id="edge19" class="edge">
<title>routes/index.js&#45;&gt;routes/media.js</title>
<path fill="none" stroke="#757575" d="M214.73,-210.5C265.93,-210.5 344.77,-210.5 399.94,-210.5"/>
<polygon fill="#757575" stroke="#757575" points="399.95,-214 409.95,-210.5 399.95,-207 399.95,-214"/>
</g>
<!-- routes/resources.js -->
<g id="node17" class="node">
<title>routes/resources.js</title>
<path fill="none" stroke="#c6c5fe" d="M522.33,-302C522.33,-302 406.67,-302 406.67,-302 402.83,-302 399,-298.17 399,-294.33 399,-294.33 399,-286.67 399,-286.67 399,-282.83 402.83,-279 406.67,-279 406.67,-279 522.33,-279 522.33,-279 526.17,-279 530,-282.83 530,-286.67 530,-286.67 530,-294.33 530,-294.33 530,-298.17 526.17,-302 522.33,-302"/>
<text text-anchor="middle" x="464.5" y="-286.8" font-family="Arial" font-size="14.00" fill="#c6c5fe">routes/resources.js</text>
</g>
<!-- routes/index.js&#45;&gt;routes/resources.js -->
<g id="edge20" class="edge">
<title>routes/index.js&#45;&gt;routes/resources.js</title>
<path fill="none" stroke="#757575" d="M177.61,-222.08C196,-236.44 229.75,-260.4 263,-271.5 303.19,-284.92 350.25,-289.89 388.68,-291.41"/>
<polygon fill="#757575" stroke="#757575" points="388.65,-294.91 398.76,-291.73 388.88,-287.91 388.65,-294.91"/>
</g>
<!-- models/user.js -->
<g id="node10" class="node">
<title>models/user.js</title>
<path fill="none" stroke="#c6c5fe" d="M905.33,-141C905.33,-141 816.67,-141 816.67,-141 812.83,-141 809,-137.17 809,-133.33 809,-133.33 809,-125.67 809,-125.67 809,-121.83 812.83,-118 816.67,-118 816.67,-118 905.33,-118 905.33,-118 909.17,-118 913,-121.83 913,-125.67 913,-125.67 913,-133.33 913,-133.33 913,-137.17 909.17,-141 905.33,-141"/>
<text text-anchor="middle" x="861" y="-125.8" font-family="Arial" font-size="14.00" fill="#c6c5fe">models/user.js</text>
</g>
<!-- services/passport.js&#45;&gt;models/user.js -->
<g id="edge35" class="edge">
<title>services/passport.js&#45;&gt;models/user.js</title>
<path fill="none" stroke="#757575" d="M532.42,-162.71C606.91,-155.16 726.27,-143.06 798.49,-135.74"/>
<polygon fill="#757575" stroke="#757575" points="799.2,-139.18 808.8,-134.69 798.5,-132.22 799.2,-139.18"/>
</g>
<!-- services/auth.js -->
<g id="node12" class="node">
<title>services/auth.js</title>
<path fill="none" stroke="#c6c5fe" d="M686.83,-219C686.83,-219 592.17,-219 592.17,-219 588.33,-219 584.5,-215.17 584.5,-211.33 584.5,-211.33 584.5,-203.67 584.5,-203.67 584.5,-199.83 588.33,-196 592.17,-196 592.17,-196 686.83,-196 686.83,-196 690.67,-196 694.5,-199.83 694.5,-203.67 694.5,-203.67 694.5,-211.33 694.5,-211.33 694.5,-215.17 690.67,-219 686.83,-219"/>
<text text-anchor="middle" x="639.5" y="-203.8" font-family="Arial" font-size="14.00" fill="#c6c5fe">services/auth.js</text>
</g>
<!-- services/passport.js&#45;&gt;services/auth.js -->
<g id="edge36" class="edge">
<title>services/passport.js&#45;&gt;services/auth.js</title>
<path fill="none" stroke="#757575" d="M517.88,-181C536.25,-185.04 557.08,-189.62 576.19,-193.81"/>
<polygon fill="#757575" stroke="#757575" points="575.49,-197.24 586,-195.97 576.99,-190.41 575.49,-197.24"/>
</g>
<!-- services/session.js&#45;&gt;db/index.js -->
<g id="edge40" class="edge">
<title>services/session.js&#45;&gt;db/index.js</title>
<path fill="none" stroke="#757575" d="M214.42,-42.97C273.86,-30.53 375.28,-12.5 463.5,-12.5 463.5,-12.5 463.5,-12.5 640.5,-12.5 797.29,-12.5 982.92,-11.96 1070.08,-11.67"/>
<polygon fill="#757575" stroke="#757575" points="1070.23,-15.17 1080.22,-11.64 1070.2,-8.17 1070.23,-15.17"/>
</g>
<!-- models/media.js -->
<g id="node8" class="node">
<title>models/media.js</title>
<path fill="none" stroke="#c6c5fe" d="M911.33,-380C911.33,-380 810.67,-380 810.67,-380 806.83,-380 803,-376.17 803,-372.33 803,-372.33 803,-364.67 803,-364.67 803,-360.83 806.83,-357 810.67,-357 810.67,-357 911.33,-357 911.33,-357 915.17,-357 919,-360.83 919,-364.67 919,-364.67 919,-372.33 919,-372.33 919,-376.17 915.17,-380 911.33,-380"/>
<text text-anchor="middle" x="861" y="-364.8" font-family="Arial" font-size="14.00" fill="#c6c5fe">models/media.js</text>
</g>
<!-- models/media.js&#45;&gt;db/connections.js -->
<g id="edge7" class="edge">
<title>models/media.js&#45;&gt;db/connections.js</title>
<path fill="none" stroke="#757575" d="M919.26,-368.5C957.85,-368.5 1009.01,-368.5 1050.02,-368.5"/>
<polygon fill="#757575" stroke="#757575" points="1050.21,-372 1060.21,-368.5 1050.21,-365 1050.21,-372"/>
</g>
<!-- models/resource.js -->
<g id="node9" class="node">
<title>models/resource.js</title>
<path fill="none" stroke="#c6c5fe" d="M918.83,-421C918.83,-421 803.17,-421 803.17,-421 799.33,-421 795.5,-417.17 795.5,-413.33 795.5,-413.33 795.5,-405.67 795.5,-405.67 795.5,-401.83 799.33,-398 803.17,-398 803.17,-398 918.83,-398 918.83,-398 922.67,-398 926.5,-401.83 926.5,-405.67 926.5,-405.67 926.5,-413.33 926.5,-413.33 926.5,-417.17 922.67,-421 918.83,-421"/>
<text text-anchor="middle" x="861" y="-405.8" font-family="Arial" font-size="14.00" fill="#c6c5fe">models/resource.js</text>
</g>
<!-- models/resource.js&#45;&gt;db/connections.js -->
<g id="edge8" class="edge">
<title>models/resource.js&#45;&gt;db/connections.js</title>
<path fill="none" stroke="#757575" d="M926.77,-399.21C964.32,-393.24 1011.6,-385.73 1050,-379.62"/>
<polygon fill="#757575" stroke="#757575" points="1050.74,-383.05 1060.07,-378.02 1049.65,-376.14 1050.74,-383.05"/>
</g>
<!-- models/user.js&#45;&gt;db/connections.js -->
<g id="edge9" class="edge">
<title>models/user.js&#45;&gt;db/connections.js</title>
<path fill="none" stroke="#757575" d="M875.79,-141.02C897.3,-159.09 940,-195.35 975,-227.5 1021.37,-270.09 1073.91,-322.19 1101.24,-349.58"/>
<polygon fill="#757575" stroke="#757575" points="1099.03,-352.32 1108.56,-356.94 1103.99,-347.38 1099.03,-352.32"/>
</g>
<!-- routes/auth.js&#45;&gt;services/logger.js -->
<g id="edge11" class="edge">
<title>routes/auth.js&#45;&gt;services/logger.js</title>
<path fill="none" stroke="#757575" d="M317.71,-262.1C328.49,-287.51 357.14,-348.85 397,-387.5 485.75,-473.55 514.88,-525.5 638.5,-525.5 638.5,-525.5 638.5,-525.5 862,-525.5 1027.88,-525.5 1090.84,-558.21 1231,-469.5 1276.49,-440.71 1305.38,-381.38 1318.24,-349.63"/>
<polygon fill="#757575" stroke="#757575" points="1321.62,-350.6 1321.98,-340.01 1315.09,-348.06 1321.62,-350.6"/>
</g>
<!-- routes/auth.js&#45;&gt;services/passport.js -->
<g id="edge12" class="edge">
<title>routes/auth.js&#45;&gt;services/passport.js</title>
<path fill="none" stroke="#757575" d="M326.4,-238.87C342.3,-225.59 370.06,-203.95 397,-190.5 401.31,-188.35 405.88,-186.36 410.54,-184.53"/>
<polygon fill="#757575" stroke="#757575" points="411.96,-187.74 420.15,-181.01 409.55,-181.17 411.96,-187.74"/>
</g>
<!-- routes/auth.js&#45;&gt;services/auth.js -->
<g id="edge10" class="edge">
<title>routes/auth.js&#45;&gt;services/auth.js</title>
<path fill="none" stroke="#757575" d="M361.07,-248.2C405.59,-245.63 473.55,-240.58 532,-231.5 548.91,-228.87 567.13,-225.12 583.64,-221.35"/>
<polygon fill="#757575" stroke="#757575" points="584.73,-224.69 593.67,-219.02 583.14,-217.87 584.73,-224.69"/>
</g>
<!-- services/user.js -->
<g id="node13" class="node">
<title>services/user.js</title>
<path fill="none" stroke="#c6c5fe" d="M511.33,-378C511.33,-378 417.67,-378 417.67,-378 413.83,-378 410,-374.17 410,-370.33 410,-370.33 410,-362.67 410,-362.67 410,-358.83 413.83,-355 417.67,-355 417.67,-355 511.33,-355 511.33,-355 515.17,-355 519,-358.83 519,-362.67 519,-362.67 519,-370.33 519,-370.33 519,-374.17 515.17,-378 511.33,-378"/>
<text text-anchor="middle" x="464.5" y="-362.8" font-family="Arial" font-size="14.00" fill="#c6c5fe">services/user.js</text>
</g>
<!-- routes/auth.js&#45;&gt;services/user.js -->
<g id="edge13" class="edge">
<title>routes/auth.js&#45;&gt;services/user.js</title>
<path fill="none" stroke="#757575" d="M327.98,-262.05C354.21,-282.27 408.65,-324.22 439.96,-348.35"/>
<polygon fill="#757575" stroke="#757575" points="438.07,-351.32 448.13,-354.65 442.35,-345.78 438.07,-351.32"/>
</g>
<!-- services/auth.js&#45;&gt;models/user.js -->
<g id="edge28" class="edge">
<title>services/auth.js&#45;&gt;models/user.js</title>
<path fill="none" stroke="#757575" d="M675.66,-195.93C687.18,-191.65 699.88,-186.38 711,-180.5 728.22,-171.39 729.19,-163.38 747,-155.5 763.24,-148.32 781.7,-143 798.92,-139.11"/>
<polygon fill="#757575" stroke="#757575" points="799.84,-142.49 808.89,-136.98 798.38,-135.65 799.84,-142.49"/>
</g>
<!-- services/user.js&#45;&gt;services/logger.js -->
<g id="edge44" class="edge">
<title>services/user.js&#45;&gt;services/logger.js</title>
<path fill="none" stroke="#757575" d="M475.73,-378.23C492.72,-396.76 528.78,-432.14 568,-446.5 642.76,-473.87 667.4,-451.94 747,-453.5 962.29,-457.71 1037.65,-526.28 1231,-431.5 1268.41,-413.16 1298.28,-373.26 1313.96,-348.86"/>
<polygon fill="#757575" stroke="#757575" points="1317.13,-350.38 1319.44,-340.04 1311.19,-346.69 1317.13,-350.38"/>
</g>
<!-- services/user.js&#45;&gt;models/media.js -->
<g id="edge41" class="edge">
<title>services/user.js&#45;&gt;models/media.js</title>
<path fill="none" stroke="#757575" d="M519.11,-366.77C590.19,-367.13 715.59,-367.77 792.88,-368.16"/>
<polygon fill="#757575" stroke="#757575" points="792.97,-371.66 802.99,-368.21 793,-364.66 792.97,-371.66"/>
</g>
<!-- services/user.js&#45;&gt;models/resource.js -->
<g id="edge42" class="edge">
<title>services/user.js&#45;&gt;models/resource.js</title>
<path fill="none" stroke="#757575" d="M479.3,-378.07C497.99,-392.91 533.06,-417.89 568,-427.5 648.55,-449.66 746.14,-435.91 805.61,-423.25"/>
<polygon fill="#757575" stroke="#757575" points="806.53,-426.63 815.54,-421.07 805.03,-419.8 806.53,-426.63"/>
</g>
<!-- services/user.js&#45;&gt;models/user.js -->
<g id="edge43" class="edge">
<title>services/user.js&#45;&gt;models/user.js</title>
<path fill="none" stroke="#757575" d="M481.24,-354.8C495.16,-344.15 515.74,-327.66 532,-311.5 549.68,-293.93 547.06,-282.02 568,-268.5 623.44,-232.71 659.86,-270.22 711,-228.5 738.11,-206.39 719.65,-180.32 747,-158.5 761.76,-146.72 780.76,-139.68 798.95,-135.48"/>
<polygon fill="#757575" stroke="#757575" points="799.85,-138.87 808.94,-133.43 798.44,-132.01 799.85,-138.87"/>
</g>
<!-- services/media.js -->
<g id="node18" class="node">
<title>services/media.js</title>
<path fill="none" stroke="#c6c5fe" d="M692.33,-300C692.33,-300 586.67,-300 586.67,-300 582.83,-300 579,-296.17 579,-292.33 579,-292.33 579,-284.67 579,-284.67 579,-280.83 582.83,-277 586.67,-277 586.67,-277 692.33,-277 692.33,-277 696.17,-277 700,-280.83 700,-284.67 700,-284.67 700,-292.33 700,-292.33 700,-296.17 696.17,-300 692.33,-300"/>
<text text-anchor="middle" x="639.5" y="-284.8" font-family="Arial" font-size="14.00" fill="#c6c5fe">services/media.js</text>
</g>
<!-- services/user.js&#45;&gt;services/media.js -->
<g id="edge45" class="edge">
<title>services/user.js&#45;&gt;services/media.js</title>
<path fill="none" stroke="#757575" d="M491.03,-354.99C520.8,-341.57 570.17,-319.31 603.5,-304.28"/>
<polygon fill="#757575" stroke="#757575" points="605.19,-307.36 612.87,-300.06 602.31,-300.98 605.19,-307.36"/>
</g>
<!-- services/resources.js -->
<g id="node19" class="node">
<title>services/resources.js</title>
<path fill="none" stroke="#c6c5fe" d="M703.33,-418C703.33,-418 575.67,-418 575.67,-418 571.83,-418 568,-414.17 568,-410.33 568,-410.33 568,-402.67 568,-402.67 568,-398.83 571.83,-395 575.67,-395 575.67,-395 703.33,-395 703.33,-395 707.17,-395 711,-398.83 711,-402.67 711,-402.67 711,-410.33 711,-410.33 711,-414.17 707.17,-418 703.33,-418"/>
<text text-anchor="middle" x="639.5" y="-402.8" font-family="Arial" font-size="14.00" fill="#c6c5fe">services/resources.js</text>
</g>
<!-- services/user.js&#45;&gt;services/resources.js -->
<g id="edge46" class="edge">
<title>services/user.js&#45;&gt;services/resources.js</title>
<path fill="none" stroke="#757575" d="M515.54,-378.07C535.26,-382.63 558.08,-387.91 578.67,-392.67"/>
<polygon fill="#757575" stroke="#757575" points="578.04,-396.11 588.57,-394.96 579.62,-389.29 578.04,-396.11"/>
</g>
<!-- routes/images.js&#45;&gt;services/logger.js -->
<g id="edge16" class="edge">
<title>routes/images.js&#45;&gt;services/logger.js</title>
<path fill="none" stroke="#757575" d="M522.7,-118.09C680.3,-90.69 1116.68,-23.94 1231,-102.5 1300.67,-150.38 1319.42,-260.01 1324.32,-306.75"/>
<polygon fill="#757575" stroke="#757575" points="1320.86,-307.32 1325.27,-316.95 1327.83,-306.67 1320.86,-307.32"/>
</g>
<!-- routes/images.js&#45;&gt;services/auth.js -->
<g id="edge14" class="edge">
<title>routes/images.js&#45;&gt;services/auth.js</title>
<path fill="none" stroke="#757575" d="M506.39,-140.05C514.97,-142.85 523.87,-146.04 532,-149.5 559.84,-161.35 589.99,-178.17 611.08,-190.65"/>
<polygon fill="#757575" stroke="#757575" points="609.43,-193.75 619.81,-195.88 613.03,-187.74 609.43,-193.75"/>
</g>
<!-- services/googleCloudStorage.js -->
<g id="node15" class="node">
<title>services/googleCloudStorage.js</title>
<path fill="none" stroke="#cfffac" d="M956.33,-259C956.33,-259 765.67,-259 765.67,-259 761.83,-259 758,-255.17 758,-251.33 758,-251.33 758,-243.67 758,-243.67 758,-239.83 761.83,-236 765.67,-236 765.67,-236 956.33,-236 956.33,-236 960.17,-236 964,-239.83 964,-243.67 964,-243.67 964,-251.33 964,-251.33 964,-255.17 960.17,-259 956.33,-259"/>
<text text-anchor="middle" x="861" y="-243.8" font-family="Arial" font-size="14.00" fill="#cfffac">services/googleCloudStorage.js</text>
</g>
<!-- routes/images.js&#45;&gt;services/googleCloudStorage.js -->
<g id="edge15" class="edge">
<title>routes/images.js&#45;&gt;services/googleCloudStorage.js</title>
<path fill="none" stroke="#757575" d="M522.71,-139.76C572.88,-150.22 647.53,-167.22 711,-187.5 751.03,-200.29 795.56,-218.81 825.42,-231.89"/>
<polygon fill="#757575" stroke="#757575" points="824.02,-235.09 834.58,-235.93 826.84,-228.69 824.02,-235.09"/>
</g>
<!-- routes/media.js&#45;&gt;services/logger.js -->
<g id="edge22" class="edge">
<title>routes/media.js&#45;&gt;services/logger.js</title>
<path fill="none" stroke="#757575" d="M505.74,-198.91C514.44,-196.26 523.55,-193.38 532,-190.5 628.81,-157.53 646.42,-127.03 747,-108.5 846.66,-90.14 873.96,-100.85 975,-108.5 1089.76,-117.19 1137.28,-80.69 1231,-147.5 1285.97,-186.69 1311.7,-267.57 1321.29,-306.55"/>
<polygon fill="#757575" stroke="#757575" points="1318,-307.84 1323.68,-316.79 1324.82,-306.26 1318,-307.84"/>
</g>
<!-- routes/media.js&#45;&gt;services/auth.js -->
<g id="edge21" class="edge">
<title>routes/media.js&#45;&gt;services/auth.js</title>
<path fill="none" stroke="#757575" d="M519.29,-209.57C536.7,-209.27 556.18,-208.93 574.27,-208.61"/>
<polygon fill="#757575" stroke="#757575" points="574.51,-212.11 584.45,-208.44 574.39,-205.11 574.51,-212.11"/>
</g>
<!-- routes/media.js&#45;&gt;services/media.js -->
<g id="edge23" class="edge">
<title>routes/media.js&#45;&gt;services/media.js</title>
<path fill="none" stroke="#757575" d="M491.03,-222.01C520.8,-235.43 570.17,-257.69 603.5,-272.72"/>
<polygon fill="#757575" stroke="#757575" points="602.31,-276.02 612.87,-276.94 605.19,-269.64 602.31,-276.02"/>
</g>
<!-- routes/resources.js&#45;&gt;services/logger.js -->
<g id="edge25" class="edge">
<title>routes/resources.js&#45;&gt;services/logger.js</title>
<path fill="none" stroke="#757575" d="M518.73,-302.02C534.52,-304.99 551.89,-307.82 568,-309.5 820.65,-335.91 1123.11,-333.3 1256.73,-330.42"/>
<polygon fill="#757575" stroke="#757575" points="1256.9,-333.91 1266.82,-330.19 1256.75,-326.91 1256.9,-333.91"/>
</g>
<!-- routes/resources.js&#45;&gt;services/auth.js -->
<g id="edge24" class="edge">
<title>routes/resources.js&#45;&gt;services/auth.js</title>
<path fill="none" stroke="#757575" d="M501.35,-278.91C511.57,-274.97 522.5,-270.11 532,-264.5 549.93,-253.9 550.03,-245.03 568,-234.5 575.48,-230.12 583.79,-226.2 592.02,-222.79"/>
<polygon fill="#757575" stroke="#757575" points="593.55,-225.95 601.58,-219.04 590.99,-219.44 593.55,-225.95"/>
</g>
<!-- routes/resources.js&#45;&gt;services/media.js -->
<g id="edge26" class="edge">
<title>routes/resources.js&#45;&gt;services/media.js</title>
<path fill="none" stroke="#757575" d="M530.41,-289.75C542.97,-289.6 556.18,-289.45 568.88,-289.3"/>
<polygon fill="#757575" stroke="#757575" points="568.98,-292.8 578.93,-289.19 568.9,-285.8 568.98,-292.8"/>
</g>
<!-- routes/resources.js&#45;&gt;services/resources.js -->
<g id="edge27" class="edge">
<title>routes/resources.js&#45;&gt;services/resources.js</title>
<path fill="none" stroke="#757575" d="M482.72,-302.05C513.21,-322.49 576.85,-365.16 612.63,-389.15"/>
<polygon fill="#757575" stroke="#757575" points="610.84,-392.17 621.09,-394.83 614.74,-386.35 610.84,-392.17"/>
</g>
<!-- services/media.js&#45;&gt;services/logger.js -->
<g id="edge33" class="edge">
<title>services/media.js&#45;&gt;services/logger.js</title>
<path fill="none" stroke="#757575" d="M680.65,-276.97C690.95,-273.15 701.73,-268.34 711,-262.5 729.88,-250.6 726.32,-235.89 747,-227.5 945.86,-146.77 1208.81,-266.88 1296.29,-312.3"/>
<polygon fill="#757575" stroke="#757575" points="1294.66,-315.4 1305.14,-316.95 1297.92,-309.2 1294.66,-315.4"/>
</g>
<!-- services/media.js&#45;&gt;models/media.js -->
<g id="edge30" class="edge">
<title>services/media.js&#45;&gt;models/media.js</title>
<path fill="none" stroke="#757575" d="M672.42,-300.13C711.14,-314.24 776.48,-338.06 818.92,-353.53"/>
<polygon fill="#757575" stroke="#757575" points="817.81,-356.85 828.4,-356.98 820.2,-350.27 817.81,-356.85"/>
</g>
<!-- services/media.js&#45;&gt;services/googleCloudStorage.js -->
<g id="edge31" class="edge">
<title>services/media.js&#45;&gt;services/googleCloudStorage.js</title>
<path fill="none" stroke="#757575" d="M700.2,-277.27C715.46,-274.4 731.84,-271.33 747,-268.5 760.13,-266.05 774.12,-263.44 787.62,-260.93"/>
<polygon fill="#757575" stroke="#757575" points="788.64,-264.3 797.83,-259.03 787.36,-257.42 788.64,-264.3"/>
</g>
<!-- services/googleTextToSpeachApi.js -->
<g id="node20" class="node">
<title>services/googleTextToSpeachApi.js</title>
<path fill="none" stroke="#cfffac" d="M967.33,-300C967.33,-300 754.67,-300 754.67,-300 750.83,-300 747,-296.17 747,-292.33 747,-292.33 747,-284.67 747,-284.67 747,-280.83 750.83,-277 754.67,-277 754.67,-277 967.33,-277 967.33,-277 971.17,-277 975,-280.83 975,-284.67 975,-284.67 975,-292.33 975,-292.33 975,-296.17 971.17,-300 967.33,-300"/>
<text text-anchor="middle" x="861" y="-284.8" font-family="Arial" font-size="14.00" fill="#cfffac">services/googleTextToSpeachApi.js</text>
</g>
<!-- services/media.js&#45;&gt;services/googleTextToSpeachApi.js -->
<g id="edge32" class="edge">
<title>services/media.js&#45;&gt;services/googleTextToSpeachApi.js</title>
<path fill="none" stroke="#757575" d="M700.19,-288.5C711.61,-288.5 723.95,-288.5 736.53,-288.5"/>
<polygon fill="#757575" stroke="#757575" points="736.66,-292 746.66,-288.5 736.66,-285 736.66,-292"/>
</g>
<!-- services/media&#45;create&#45;producer.js -->
<g id="node21" class="node">
<title>services/media&#45;create&#45;producer.js</title>
<path fill="none" stroke="#c6c5fe" d="M1223.33,-179C1223.33,-179 1018.67,-179 1018.67,-179 1014.83,-179 1011,-175.17 1011,-171.33 1011,-171.33 1011,-163.67 1011,-163.67 1011,-159.83 1014.83,-156 1018.67,-156 1018.67,-156 1223.33,-156 1223.33,-156 1227.17,-156 1231,-159.83 1231,-163.67 1231,-163.67 1231,-171.33 1231,-171.33 1231,-175.17 1227.17,-179 1223.33,-179"/>
<text text-anchor="middle" x="1121" y="-163.8" font-family="Arial" font-size="14.00" fill="#c6c5fe">services/media&#45;create&#45;producer.js</text>
</g>
<!-- services/media.js&#45;&gt;services/media&#45;create&#45;producer.js -->
<g id="edge34" class="edge">
<title>services/media.js&#45;&gt;services/media&#45;create&#45;producer.js</title>
<path fill="none" stroke="#757575" d="M686.85,-276.98C695.53,-273.34 704.05,-268.62 711,-262.5 736.97,-239.65 718.06,-212.45 747,-193.5 787.54,-166.95 907.68,-162.53 1000.77,-163.45"/>
<polygon fill="#757575" stroke="#757575" points="1000.79,-166.95 1010.83,-163.57 1000.87,-159.95 1000.79,-166.95"/>
</g>
<!-- services/resources.js&#45;&gt;services/logger.js -->
<g id="edge39" class="edge">
<title>services/resources.js&#45;&gt;services/logger.js</title>
<path fill="none" stroke="#757575" d="M681.61,-418C701.23,-422.91 725.15,-428.07 747,-430.5 961.56,-454.38 1029.33,-466.52 1231,-389.5 1258.07,-379.16 1285.55,-360.43 1303.94,-346.44"/>
<polygon fill="#757575" stroke="#757575" points="1306.46,-348.91 1312.2,-340.01 1302.16,-343.39 1306.46,-348.91"/>
</g>
<!-- services/resources.js&#45;&gt;models/resource.js -->
<g id="edge37" class="edge">
<title>services/resources.js&#45;&gt;models/resource.js</title>
<path fill="none" stroke="#757575" d="M711.16,-407.47C734.85,-407.79 761.33,-408.15 785.31,-408.48"/>
<polygon fill="#757575" stroke="#757575" points="785.38,-411.98 795.42,-408.62 785.47,-404.98 785.38,-411.98"/>
</g>
<!-- services/resources.js&#45;&gt;services/googleCloudStorage.js -->
<g id="edge38" class="edge">
<title>services/resources.js&#45;&gt;services/googleCloudStorage.js</title>
<path fill="none" stroke="#757575" d="M648.91,-394.63C671.66,-362.68 733.57,-276.71 747,-268.5 750.26,-266.51 753.66,-264.7 757.16,-263.05"/>
<polygon fill="#757575" stroke="#757575" points="758.79,-266.17 766.65,-259.07 756.08,-259.71 758.79,-266.17"/>
</g>
<!-- services/media&#45;create&#45;producer.js&#45;&gt;services/logger.js -->
<g id="edge29" class="edge">
<title>services/media&#45;create&#45;producer.js&#45;&gt;services/logger.js</title>
<path fill="none" stroke="#757575" d="M1200.84,-179.02C1211.51,-182.62 1221.9,-187.33 1231,-193.5 1273.83,-222.55 1303.51,-277.79 1317.28,-307.82"/>
<polygon fill="#757575" stroke="#757575" points="1314.08,-309.24 1321.33,-316.96 1320.48,-306.4 1314.08,-309.24"/>
</g>
</g>
</svg>
